<svg width="43" height="36" viewBox="0 0 43 36" fill="none" xmlns="http://www.w3.org/2000/svg">
<circle cx="18" cy="18" r="18" fill="#FFA54A"/>
<circle cx="21.2143" cy="18" r="18" fill="#2DD4CA"/>
<circle cx="24.4286" cy="18" r="18" fill="#FF453A"/>
<path d="M31.9513 21.5226C31.9513 20.4675 31.6832 19.5021 31.147 18.6299C30.9618 18.3274 30.7642 18.0338 30.5596 17.7454C30.1698 17.2002 29.7465 16.6797 29.2844 16.1838C29.0392 15.9166 28.8134 15.651 28.6018 15.3873C28.1696 14.8456 27.8045 14.3058 27.5135 13.7695C28.3002 14.0262 29.272 14.1546 30.4256 14.1546C31.3622 14.1546 32.1259 13.9207 32.7168 13.4547C33.3077 12.9869 33.6798 12.5033 33.8368 12.0039C33.992 11.5028 34.0714 11.0913 34.0714 10.766C34.0714 10.4143 33.9903 9.98521 33.8262 9.47701C33.7945 9.37502 33.7486 9.27478 33.694 9.17455C33.4805 8.77538 33.1066 8.38851 32.5633 8.01571C31.8843 7.54796 30.9477 7.31584 29.7536 7.31584C28.6547 7.31584 27.7005 7.48817 26.8926 7.83283C26.0848 8.17749 25.4304 8.6558 24.9277 9.26423C24.4938 8.88616 24.0282 8.53094 23.5325 8.19859C23.0369 7.868 22.4936 7.59719 21.9028 7.38617C21.3119 7.17692 20.6293 7.07141 19.8567 7.07141C18.6079 7.07141 17.5902 7.35628 16.8018 7.92427C16.0151 8.49226 15.4577 9.19038 15.1314 10.0151C14.9004 10.5972 14.7857 11.1792 14.7857 11.7613C14.7857 12.0057 14.8298 12.3908 14.918 12.9184C14.9903 13.3527 15.2372 13.8011 15.6553 14.2618C15.7452 14.3621 15.8405 14.4623 15.9463 14.5625C16.5442 15.1305 17.3644 15.4154 18.4104 15.4154C18.9942 15.4154 19.4793 15.3679 19.8655 15.273C20.2518 15.178 20.5675 15.0567 20.8127 14.9072C21.0579 14.7577 21.2431 14.5995 21.3718 14.4306C21.5006 14.2618 21.5888 14.1018 21.6364 13.9541C21.684 13.8046 21.707 13.6763 21.707 13.569V13.4266H21.5235C21.2025 13.4266 20.9326 13.3369 20.7139 13.1575C20.6734 13.1241 20.6346 13.0889 20.5975 13.0502C20.3594 12.8005 20.2342 12.5702 20.2201 12.3592C20.206 12.1499 20.1989 12.025 20.1989 11.9828C20.1989 11.6452 20.2941 11.3304 20.4846 11.0385C20.6751 10.7484 20.9732 10.6024 21.3807 10.6024C21.8287 10.6024 22.2432 10.7009 22.6224 10.8961C23.0016 11.0931 23.3826 11.3392 23.7618 11.6364C23.7442 11.7173 23.7301 11.7947 23.7142 11.8738C23.6384 12.273 23.5978 12.6546 23.5978 13.0168C23.5978 13.4899 23.6966 14.0156 23.8924 14.5907C24.0881 15.1657 24.4109 15.8128 24.8589 16.5303C25.1447 16.991 25.4145 17.4922 25.6738 18.032C26.1359 19.0203 26.3758 19.6938 26.397 20.0525C26.4182 20.4112 26.427 20.631 26.427 20.7119C26.427 21.2272 26.3088 21.6263 26.0707 21.9095C25.8326 22.1943 25.5116 22.335 25.1041 22.335C24.8043 22.335 24.5644 22.2805 24.3809 22.1767C24.2398 22.0976 24.1287 21.9886 24.0564 21.8479C23.8871 21.5226 23.8024 21.2254 23.8024 20.9546C23.8024 20.7787 23.8465 20.529 23.9347 20.2037C24.0229 19.8802 24.3033 19.583 24.7743 19.3139C24.776 19.3139 24.7778 19.3122 24.7796 19.3104L24.5961 18.9658C24.4744 18.7354 24.261 18.4751 23.9541 18.185C23.6489 17.8948 23.2309 17.6346 22.7018 17.4042C22.1726 17.1739 21.5006 17.0596 20.6857 17.0596C19.6944 17.0596 18.8602 17.3304 18.1811 17.872C17.502 18.4136 17.0205 19.0625 16.7347 19.8204C16.449 20.5783 16.3079 21.3168 16.3079 22.0325C16.3079 22.2348 16.3379 22.6322 16.3996 23.2195C16.4613 23.8086 16.77 24.5261 17.3256 25.3719C17.4526 25.5653 17.5955 25.75 17.7489 25.9276C18.2657 26.5272 18.9272 27.0389 19.7385 27.4627C20.7898 28.0114 22.1232 28.2857 23.7407 28.2857C25.4516 28.2857 26.9032 27.9569 28.0991 27.301C29.2932 26.645 30.2174 25.8186 30.8683 24.825C31.5192 23.8297 31.879 22.7852 31.9478 21.6879V21.5261L31.9513 21.5226ZM28.3372 9.86915C28.6829 9.49107 29.0674 9.30116 29.4872 9.30116C29.9493 9.30116 30.258 9.40315 30.4132 9.60537C30.5173 9.74078 30.5843 9.87794 30.6196 10.0133C30.6372 10.0802 30.6478 10.147 30.6478 10.2138C30.6478 10.2806 30.6337 10.4002 30.6073 10.569C30.5808 10.7378 30.4538 10.9348 30.2298 11.1581C30.0058 11.3814 29.7236 11.4922 29.3849 11.4922C28.9387 11.4922 28.5242 11.4377 28.1432 11.3304C27.9209 11.2671 27.7111 11.1863 27.5117 11.0878C27.7146 10.6552 27.9897 10.249 28.3372 9.86915Z" fill="white"/>
</svg>
